Coordinates
version=1
nRows=10
nColumns=22
inDegrees=yes

Units are S.I. units (second, meters, Newtons, ...)
If the header above contains a line with 'inDegrees', this indicates whether rotational values are in degrees (yes) or radians (no).

endheader
time	pelvis_tilt	pelvis_list	pelvis_rotation	pelvis_tx	pelvis_ty	pelvis_tz	hip_flexion_r	hip_adduction_r	hip_rotation_r	knee_angle_r	ankle_angle_r	subtalar_angle_r	hip_flexion_l	hip_adduction_l	hip_rotation_l	knee_angle_l	ankle_angle_l	subtalar_angle_l	lumbar_extension	lumbar_bending	lumbar_rotation
      3.02000000	      1.29864663	      3.76624475	    173.36418892	      0.09065780	      0.89721866	     -0.60417837	    -12.85938096	     -0.56756721	     -3.79316273	    -32.28910849	     -4.25405409	     14.42945382	     31.42278625	     -0.48155603	    -14.68252174	    -35.03449170	      6.23812713	    -16.71023010	     -2.31873404	     -3.50617375	      7.43295721
      3.03000000	      1.15938118	      3.63300018	    173.69025151	      0.08033651	      0.89868617	     -0.60282751	    -11.25013791	     -1.01443117	     -3.37296420	    -35.71867896	     -6.74839756	     14.26168808	     30.58915835	     -0.02117927	    -14.49577763	    -35.01721845	      7.02599660	    -16.70782115	     -2.49438596	     -3.66050209	      7.47453966
      3.04000000	      1.01130241	      3.48116406	    173.94822589	      0.07042311	      0.90003983	     -0.60154283	     -9.45486513	     -1.49932087	     -2.92573470	    -39.29869183	     -9.29017792	     13.81862687	     29.72703613	      0.40102822	    -14.44438829	    -34.93915010	      7.77548939	    -16.68001227	     -2.73356202	     -3.83381644	      7.49865189
      3.05000000	      0.92499996	      3.29119616	    174.16611977	      0.06090608	      0.90111853	     -0.60027914	     -7.41702527	     -2.02330075	     -2.46357275	    -42.97917961	    -11.74357788	     13.12148176	     28.94118598	      0.82606877	    -14.45530524	    -34.83674477	      8.54851596	    -16.65652987	     -2.94292279	     -4.04044408	      7.48593620
      3.06000000	      0.85985767	      3.05778442	    174.37320635	      0.05171510	      0.90201754	     -0.59899477	     -5.22697440	     -2.58857229	     -1.99554576	    -46.65606797	    -14.05767495	     12.37570857	     28.18729679	      1.27363730	    -14.52618998	    -34.70742176	      9.22259976	    -16.61840228	     -3.16172846	     -4.29237864	      7.43090792
      3.07000000	      0.83206553	      2.79410051	    174.60539741	      0.04279473	      0.90272250	     -0.59764875	     -2.91132780	     -3.15871699	     -1.51073349	    -50.24954816	    -16.06182180	     11.61073999	     27.49291808	      1.75304439	    -14.59037674	    -34.56997302	      9.83312186	    -16.57339589	     -3.36184698	     -4.57322513	      7.30990706
      3.08000000	      0.83863922	      2.51735081	    174.89419847	      0.03408871	      0.90327239	     -0.59620133	     -0.51730324	     -3.69450274	     -0.99470703	    -53.68679701	    -17.61210806	     10.88199665	     26.85547086	      2.26580047	    -14.59953038	    -34.42840005	     10.38377479	    -16.52710268	     -3.53877343	     -4.86224086	      7.10719866
      3.09000000	      0.87789297	      2.25020143	    175.26581602	      0.02554589	      0.90370569	     -0.59462039	      1.91407301	     -4.15741572	     -0.44587993	    -56.91208695	    -18.58932457	     10.22308603	     26.27058478	      2.80307755	    -14.50909859	    -34.28838166	     10.87930739	    -16.48808534	     -3.68843432	     -5.13456546	      6.81283901
      3.10000000	      0.93462500	      2.00543750	    175.73799677	      0.01712786	      0.90408985	     -0.59286696	      4.33383286	     -4.53041560	      0.12976457	    -59.87692667	    -18.95747416	      9.69369766	     25.71469600	      3.36302633	    -14.29492502	    -34.14529818	     11.32135089	    -16.45997660	     -3.82386745	     -5.37156946	      6.42622494
      3.11000000	      0.97357097	      1.76717294	    176.32858568	      0.00877503	      0.90452093	     -0.59088914	      6.67436691	     -4.84621911	      0.70806011	    -62.54658550	    -18.74837424	      9.36539764	     25.12452193	      3.97686767	    -13.94261894	    -33.95821555	     11.66915498	    -16.43676953	     -3.97635019	     -5.59337483	      5.92917700
